<?xml version="1.0" encoding="UTF-8"?>
<svg id="Ebene_2" data-name="Ebene 2" xmlns="http://www.w3.org/2000/svg" viewBox="0 0 266.89 42">
  <defs>
    <style>
      .cls-1 {
        fill: #27b6ca;
        fill-rule: evenodd;
      }

      .cls-2 {
        fill: #24b5c9;
      }
    </style>
  </defs>
  <g id="Ebene_1-2" data-name="Ebene 1">
    <g>
      <g>
        <path class="cls-2" d="M55.94,34.2V7.89h4.96l9.44,20.95,9.44-20.95h5.04v26.31h-4.96v-8.1c0-5.29,0-6.84.28-8.71l-7.44,16.81h-4.72l-7.4-16.77c.28,1.58.32,4.07.32,7.34v9.43h-4.96Z"/>
        <path class="cls-2" d="M105.34,34.63c-8.36,0-14.12-5.58-14.12-13.61s5.8-13.61,14.16-13.61,14.2,5.58,14.2,13.61-5.84,13.61-14.24,13.61ZM105.38,11.85c-5.36,0-8.8,3.56-8.8,9.18s3.44,9.18,8.8,9.18,8.8-3.64,8.8-9.18-3.44-9.18-8.8-9.18Z"/>
        <path class="cls-2" d="M125.94,34.2V7.89h5.08l13.72,18.65V7.89h5.04v26.31h-5.04l-13.76-18.64v18.64h-5.04Z"/>
        <path class="cls-2" d="M155.3,7.89h22.24v4.25h-8.56v22.06h-5.12V12.14h-8.56v-4.25Z"/>
        <path class="cls-2" d="M177.66,34.2l10.56-26.31h5.24l10.56,26.31h-5.4l-2.36-6.08h-10.92l-2.36,6.08h-5.32ZM186.86,24.23h7.92l-3.36-8.49c-.24-.68-.52-1.48-.6-2.02-.12.5-.36,1.29-.64,2.02l-3.32,8.49Z"/>
        <path class="cls-2" d="M202.22,7.89h5.44l6.4,15.15c.64,1.58,1.2,3.13,1.84,5.26.72-2.3,1.32-3.92,1.88-5.26l6.32-15.15h5.32l-10.88,26.31h-5.28l-11.04-26.31Z"/>
        <path class="cls-2" d="M239.78,34.2h-5.12V7.89h5.12v26.31Z"/>
        <path class="cls-2" d="M256.58,7.42c5.92,0,9.68,2.95,9.84,7.7h-5.12c-.12-2.27-1.92-3.6-4.8-3.6-3.16,0-5.2,1.37-5.2,3.56,0,1.87,1.12,2.92,3.56,3.42l4.6.9c5,.97,7.44,3.28,7.44,7.2,0,4.9-4.24,8.06-10.68,8.06s-10.32-2.99-10.44-7.7h5.12c.04,2.23,2.04,3.56,5.32,3.56s5.56-1.33,5.56-3.53c0-1.76-1-2.81-3.4-3.28l-4.64-.94c-4.96-.97-7.56-3.53-7.56-7.56,0-4.61,4.24-7.81,10.4-7.81Z"/>
      </g>
      <path class="cls-1" d="M37.49,27.94c-.3.25-.61.49-.93.72l-.21-.1c1.21-5.83-.17-12.13-4.31-17.05-3.96-4.7-9.61-7.14-15.32-7.19l-.09-.24c.14-.13.29-.25.44-.38,6.72-5.62,16.74-4.74,22.37,1.95,5.64,6.69,4.76,16.67-1.96,22.29ZM11.88,28.7c6.68,7.92,18.53,8.96,26.49,2.31.54-.45,1.05-.92,1.52-1.42l.29.16c-1.26,2.75-3.14,5.27-5.62,7.35-8.9,7.44-22.17,6.28-29.63-2.58C-2.55,25.65-1.38,12.43,7.51,4.99c2.19-1.83,4.63-3.13,7.19-3.94.35-.11.71-.21,1.07-.3l.14.28c-.3.2-.59.4-.88.61-.29.21-.57.43-.84.67-7.95,6.65-8.99,18.46-2.32,26.39ZM33.45,29.25c-5.3-.3-10.47-2.7-14.15-7.07-3.69-4.38-5.16-9.87-4.53-15.13l-.19-.05c-3.11,5.52-2.66,12.61,1.67,17.74,4.32,5.13,11.23,6.8,17.21,4.73v-.21Z"/>
    </g>
  </g>
</svg>